<svg xmlns="http://www.w3.org/2000/svg" width="19.5" height="15.484" viewBox="0 0 19.5 15.484">
  <g id="about_us" transform="translate(0 -19.564)">
    <g id="Group_115" data-name="Group 115" transform="translate(9.359 34.286)">
      <g id="Group_114" data-name="Group 114">
        <path id="Path_71" data-name="Path 71" d="M246.39,492.112a.381.381,0,1,0,.112.269A.384.384,0,0,0,246.39,492.112Z" transform="translate(-245.74 -492)" fill="#fff"/>
      </g>
    </g>
    <g id="Group_117" data-name="Group 117" transform="translate(0 19.564)">
      <g id="Group_116" data-name="Group 116">
        <path id="Path_72" data-name="Path 72" d="M17.465,113.878l-1.27-.3v-.5a2.514,2.514,0,0,0,1.175-2.126v-1.419a2.512,2.512,0,0,0-4.394-1.665,3.358,3.358,0,0,0-3.221-2.423h0a3.358,3.358,0,0,0-3.223,2.43,2.512,2.512,0,0,0-4.4,1.659v1.419a2.513,2.513,0,0,0,1.175,2.126v.5l-1.27.3A2.643,2.643,0,0,0,0,116.457v2.56a.381.381,0,0,0,.381.381H3.426v1.143a.381.381,0,0,0,.381.381H7.985a.381.381,0,0,0,0-.762h-1.7v-1.676a.381.381,0,0,0-.762,0v1.676H4.188v-1.718a2.773,2.773,0,0,1,2.133-2.7l1.873-.449L9.4,118.029a.381.381,0,0,0,.349.228h0a.381.381,0,0,0,.349-.228l1.2-2.738,1.868.446a2.772,2.772,0,0,1,2.135,2.705v.425a.382.382,0,0,0,0,.3v.994H13.977v-1.676a.381.381,0,0,0-.762,0v1.676H11.35a.381.381,0,1,0,0,.762h4.335a.381.381,0,0,0,.381-.381V119.4h3.053a.381.381,0,0,0,.381-.381v-2.56A2.643,2.643,0,0,0,17.465,113.878Zm-2.609-6.1a1.754,1.754,0,0,1,1.752,1.752v.133H15.518a4.706,4.706,0,0,1-2.344-.626A1.755,1.755,0,0,1,14.855,107.773ZM13.1,110.883c0-.039,0-1.024,0-1.024a5.468,5.468,0,0,0,2.412.561h1.089v.525a1.752,1.752,0,0,1-3.5,0v-.062Zm-5.939-2.094a2.59,2.59,0,0,1,5.18,0v.05l-1.414-.83a.381.381,0,0,0-.485.084,2.876,2.876,0,0,1-2.21,1.031H7.164Zm-4.271.831v-.094a1.752,1.752,0,0,1,3.433-.493,4.706,4.706,0,0,1-2.344.626H2.893Zm0,1.325v-.525H3.982a5.467,5.467,0,0,0,2.415-.562v1.087a1.752,1.752,0,0,1-3.5,0Zm.534,7.5v.195H2.285v-1.692a.381.381,0,0,0-.762,0v1.692H.762v-2.179a1.883,1.883,0,0,1,1.451-1.838l1.207-.288.788,1.887A3.536,3.536,0,0,0,3.426,118.441Zm1.218-3.153L4.066,113.9c0-.009,0-.018,0-.027v-.484a2.5,2.5,0,0,0,1.152,0v.46c0,.007,0,.014,0,.021s0,.024,0,.036Zm1.5-.293a3.58,3.58,0,0,0-.644.221l.371-.888,1.207.289a1.888,1.888,0,0,1,.273.088Zm1.89-.794a2.645,2.645,0,0,0-.778-.324l-1.275-.305v-.5a2.532,2.532,0,0,0,.787-.785,3.376,3.376,0,0,0,1.266,1.354Zm2.665.565-.951,2.163L8.8,114.763v-.785a3.354,3.354,0,0,0,1.9,0v.786Zm-.946-1.412a2.593,2.593,0,0,1-2.59-2.59v-.881H8.236a3.635,3.635,0,0,0,2.574-1.064l1.532.9v1.135A2.593,2.593,0,0,1,9.754,113.355Zm1.707.293h0a3.375,3.375,0,0,0,1.275-1.354,2.533,2.533,0,0,0,.783.778v.5l-1.275.305a2.645,2.645,0,0,0-.783.327v-.556ZM13.346,115l-1.2-.288a1.89,1.89,0,0,1,.28-.091l1.2-.289.372.892A3.581,3.581,0,0,0,13.346,115Zm.932-1.083a.38.38,0,0,0,0-.042s0-.007,0-.011v-.47a2.5,2.5,0,0,0,1.152,0v.484c0,.007,0,.014,0,.021l-.581,1.392Zm4.46,4.722h-.762v-1.692a.381.381,0,0,0-.762,0v1.692H16.066v-.193a3.535,3.535,0,0,0-.779-2.221l.79-1.893,1.21.289a1.883,1.883,0,0,1,1.451,1.838Z" transform="translate(0 -105.437)" fill="#fff"/>
      </g>
    </g>
    <g id="Group_119" data-name="Group 119" transform="translate(8.092 24.355)">
      <g id="Group_118" data-name="Group 118">
        <path id="Path_73" data-name="Path 73" d="M213.11,231.362a.381.381,0,1,0,.112.269A.384.384,0,0,0,213.11,231.362Z" transform="translate(-212.46 -231.25)" fill="#fff"/>
      </g>
    </g>
    <g id="Group_121" data-name="Group 121" transform="translate(10.639 24.355)">
      <g id="Group_120" data-name="Group 120">
        <path id="Path_74" data-name="Path 74" d="M279.98,231.362a.381.381,0,1,0,.112.269A.384.384,0,0,0,279.98,231.362Z" transform="translate(-279.33 -231.25)" fill="#fff"/>
      </g>
    </g>
    <g id="Group_123" data-name="Group 123" transform="translate(8.886 25.637)">
      <g id="Group_122" data-name="Group 122">
        <path id="Path_75" data-name="Path 75" d="M234.9,265.025a.381.381,0,0,0-.539,0,.289.289,0,0,1-.408,0,.381.381,0,0,0-.539.539,1.052,1.052,0,0,0,1.486,0A.381.381,0,0,0,234.9,265.025Z" transform="translate(-233.307 -264.913)" fill="#fff"/>
      </g>
    </g>
  </g>
</svg>
