<svg xmlns="http://www.w3.org/2000/svg" width="19.5" height="17.875" viewBox="0 0 19.5 17.875">
  <g id="about_blog" transform="translate(0 -21.166)">
    <path id="Path_54" data-name="Path 54" d="M384.835,24.141a2.023,2.023,0,1,0-.862.861l.861.861A.61.61,0,1,0,385.7,25Zm-2.616-.943a.813.813,0,1,1,.813.813A.815.815,0,0,1,382.219,23.2Z" transform="translate(-366.375 -0.001)" fill="#fff"/>
    <path id="Path_55" data-name="Path 55" d="M1.422,26.041H11.578A1.423,1.423,0,0,0,13,24.619V22.588a1.423,1.423,0,0,0-1.422-1.422H1.422A1.423,1.423,0,0,0,0,22.588v2.031a1.423,1.423,0,0,0,1.422,1.422Z" fill="#fff"/>
    <path id="Path_56" data-name="Path 56" d="M344.558,201.083h-5.281a.609.609,0,0,0,0,1.219h5.281a.609.609,0,0,0,0-1.219Z" transform="translate(-325.667 -173.011)" fill="#fff"/>
    <path id="Path_57" data-name="Path 57" d="M344.558,264.583h-5.281a.609.609,0,0,0,0,1.219h5.281a.609.609,0,0,0,0-1.219Z" transform="translate(-325.667 -234.073)" fill="#fff"/>
    <path id="Path_58" data-name="Path 58" d="M344.558,328.083h-5.281a.609.609,0,0,0,0,1.219h5.281a.609.609,0,0,0,0-1.219Z" transform="translate(-325.667 -295.136)" fill="#fff"/>
    <path id="Path_59" data-name="Path 59" d="M344.558,391.583h-5.281a.609.609,0,0,0,0,1.219h5.281a.609.609,0,0,0,0-1.219Z" transform="translate(-325.667 -356.198)" fill="#fff"/>
    <path id="Path_60" data-name="Path 60" d="M344.558,455.083h-5.281a.609.609,0,0,0,0,1.219h5.281a.609.609,0,0,0,0-1.219Z" transform="translate(-325.667 -417.261)" fill="#fff"/>
    <path id="Path_61" data-name="Path 61" d="M1.422,212.052H9.953a1.429,1.429,0,0,0,1.422-1.422V202.5a1.429,1.429,0,0,0-1.422-1.422H1.422A1.429,1.429,0,0,0,0,202.5v8.125a1.429,1.429,0,0,0,1.422,1.422Zm2.437-2.437A.614.614,0,0,1,3.25,209v-.3a1.623,1.623,0,0,1,1.706-1.527H6.419A1.623,1.623,0,0,1,8.125,208.7v.3a.614.614,0,0,1-.609.609Zm.609-4.469a1.219,1.219,0,1,1,1.219,1.219,1.217,1.217,0,0,1-1.219-1.219Z" transform="translate(0 -173.011)" fill="#fff"/>
  </g>
</svg>
