<svg xmlns="http://www.w3.org/2000/svg" width="18.784" height="18.767" viewBox="0 0 18.784 18.767">
  <g id="categories" transform="translate(0 -0.234)">
    <path id="Path_47" data-name="Path 47" d="M18.686,16.736a3.744,3.744,0,0,0-1.468-1.7,6.727,6.727,0,0,0-1.729-.9,1.332,1.332,0,0,0-1.54-1.909,5.373,5.373,0,0,0-.907-4.042V5.466a.275.275,0,1,0-.55,0V7.529a5.424,5.424,0,0,0-.727-.62,5.387,5.387,0,0,0-8.472,5.016,5.42,5.42,0,0,0,.156.8H1.484a.935.935,0,0,1-.934-.934V1.718A.935.935,0,0,1,1.484.784H11.558a.935.935,0,0,1,.934.934V4.365a.275.275,0,1,0,.55,0V1.718A1.486,1.486,0,0,0,11.558.234H1.484A1.486,1.486,0,0,0,0,1.718V11.791a1.486,1.486,0,0,0,1.484,1.484H3.632a5.363,5.363,0,0,0,1.435,2.051.275.275,0,0,0,.365-.412A4.836,4.836,0,1,1,13.28,12.67c-.018.022-.036.045-.052.068l-1.721,2.419c-.017.024-.032.048-.048.072a4.84,4.84,0,0,1-5.18.289.275.275,0,0,0-.27.48A5.391,5.391,0,0,0,11.264,16a1.332,1.332,0,0,0,1.327,1.258,1.347,1.347,0,0,0,.224-.019,1.322,1.322,0,0,0,.757-.409,6.723,6.723,0,0,0,1.415,1.339A3.691,3.691,0,0,0,17.063,19a1.672,1.672,0,0,0,1.4-.72,1.647,1.647,0,0,0,.227-1.545ZM12.723,16.7a.782.782,0,0,1-.767-1.225l1.721-2.419a.777.777,0,0,1,.507-.318.793.793,0,0,1,.132-.011.782.782,0,0,1,.636,1.236L13.23,16.383A.777.777,0,0,1,12.723,16.7Zm5.287,1.261a1.1,1.1,0,0,1-.941.487,3.419,3.419,0,0,1-1.764-.724,6.008,6.008,0,0,1-1.392-1.353l1.251-1.759a6.01,6.01,0,0,1,1.734.871c.713.507,1.805,1.5,1.112,2.478Z" transform="translate(0 0)" fill="#fff"/>
    <path id="Path_48" data-name="Path 48" d="M133.289,203.438a3.949,3.949,0,0,0,.656-.055,3.879,3.879,0,1,0-.656.055Zm-2.718-5.837a3.346,3.346,0,1,1,.787,4.666A3.344,3.344,0,0,1,130.571,197.6Z" transform="translate(-124.655 -188.242)" fill="#fff"/>
    <path id="Path_51" data-name="Path 51" d="M39.469,32.853a.275.275,0,0,0-.389,0L37.1,34.829a.275.275,0,1,0,.389.389l1.976-1.976A.275.275,0,0,0,39.469,32.853Z" transform="translate(-35.665 -31.345)" fill="#fff"/>
    <path id="Path_52" data-name="Path 52" d="M56.5,36.37a.274.274,0,0,0,.195-.081l3.047-3.047a.275.275,0,0,0-.389-.389L56.309,35.9a.275.275,0,0,0,.195.47Z" transform="translate(-54.165 -31.345)" fill="#fff"/>
    <path id="Path_53" data-name="Path 53" d="M260.552,80.739l-1.976,1.976a.275.275,0,1,0,.389.389l1.976-1.976a.275.275,0,0,0-.389-.389Z" transform="translate(-249.012 -77.474)" fill="#fff"/>
  </g>
</svg>
