<svg id="clock" xmlns="http://www.w3.org/2000/svg" width="8.56" height="8.56" viewBox="0 0 8.56 8.56">
  <g id="Group_6" data-name="Group 6">
    <g id="Group_5" data-name="Group 5">
      <path id="Path_3" data-name="Path 3" d="M176.186,40.465a.187.187,0,0,0,.186-.186v-.093a.186.186,0,0,0-.372,0v.093A.187.187,0,0,0,176.186,40.465Z" transform="translate(-171.906 -39.07)" fill="#20657d"/>
      <path id="Path_4" data-name="Path 4" d="M176.186,308a.187.187,0,0,0-.186.186v.093a.186.186,0,0,0,.372,0v-.093A.187.187,0,0,0,176.186,308Z" transform="translate(-171.906 -300.836)" fill="#20657d"/>
      <path id="Path_5" data-name="Path 5" d="M40.279,176h-.093a.186.186,0,0,0,0,.372h.093a.186.186,0,0,0,0-.372Z" transform="translate(-39.07 -171.906)" fill="#20657d"/>
      <path id="Path_6" data-name="Path 6" d="M308.279,176h-.093a.186.186,0,0,0,0,.372h.093a.186.186,0,0,0,0-.372Z" transform="translate(-300.836 -171.906)" fill="#20657d"/>
      <path id="Path_7" data-name="Path 7" d="M80.316,80.056a.184.184,0,0,0-.261.261l.065.065a.18.18,0,0,0,.261,0,.18.18,0,0,0,0-.261Z" transform="translate(-78.139 -78.139)" fill="#20657d"/>
      <path id="Path_8" data-name="Path 8" d="M80.121,269.256l-.065.065a.18.18,0,0,0,0,.261.18.18,0,0,0,.261,0l.065-.065a.184.184,0,0,0-.261-.26Z" transform="translate(-78.139 -262.938)" fill="#20657d"/>
      <path id="Path_9" data-name="Path 9" d="M269.321,80.056l-.065.065a.18.18,0,0,0,0,.261.18.18,0,0,0,.26,0l.065-.065a.184.184,0,0,0-.261-.261Z" transform="translate(-262.938 -78.139)" fill="#20657d"/>
      <path id="Path_10" data-name="Path 10" d="M176.372,101.88v-1.693a.186.186,0,0,0-.372,0v1.768a.184.184,0,0,0,.056.13l2.038,2.038a.18.18,0,0,0,.261,0,.18.18,0,0,0,0-.261Z" transform="translate(-171.906 -97.674)" fill="#20657d"/>
      <path id="Path_11" data-name="Path 11" d="M4.28,0A4.28,4.28,0,1,0,8.56,4.28,4.281,4.281,0,0,0,4.28,0Zm0,8.188A3.908,3.908,0,1,1,8.188,4.28,3.907,3.907,0,0,1,4.28,8.188Z" fill="#20657d"/>
    </g>
  </g>
</svg>
