<svg xmlns="http://www.w3.org/2000/svg" width="18.784" height="18.785" viewBox="0 0 18.784 18.785">
  <g id="contact_us" transform="translate(-0.01)">
    <path id="Path_76" data-name="Path 76" d="M18.754,14.555q-.08-.24-1.014-.707-.253-.147-.72-.4t-.847-.467q-.381-.213-.714-.413-.053-.04-.333-.234a3.749,3.749,0,0,0-.474-.287.873.873,0,0,0-.38-.093,1.107,1.107,0,0,0-.667.38,6.5,6.5,0,0,0-.734.827,8.043,8.043,0,0,1-.707.827,1.017,1.017,0,0,1-.614.38.907.907,0,0,1-.3-.067c-.12-.044-.211-.083-.274-.113s-.169-.093-.32-.187-.236-.145-.254-.154a14.02,14.02,0,0,1-3.135-2.321A14.013,14.013,0,0,1,4.946,8.391q-.013-.027-.153-.253t-.187-.32a2.891,2.891,0,0,1-.113-.273.9.9,0,0,1-.067-.3,1.017,1.017,0,0,1,.38-.614,8.035,8.035,0,0,1,.827-.707A6.493,6.493,0,0,0,6.46,5.19a1.107,1.107,0,0,0,.38-.667.871.871,0,0,0-.093-.38,3.709,3.709,0,0,0-.287-.474q-.194-.28-.234-.334-.2-.333-.413-.714t-.467-.847q-.253-.467-.4-.72Q4.479.12,4.239.04A.747.747,0,0,0,3.959,0a4.4,4.4,0,0,0-.941.133A5.283,5.283,0,0,0,2.1.414,3.576,3.576,0,0,0,.69,2.041,5.172,5.172,0,0,0,.01,4.522a5.152,5.152,0,0,0,.047.7,5.756,5.756,0,0,0,.167.767q.12.427.193.634t.273.74q.2.534.24.654a12.084,12.084,0,0,0,1.107,2.335,19.782,19.782,0,0,0,2.875,3.529,19.79,19.79,0,0,0,3.529,2.875,12.1,12.1,0,0,0,2.335,1.107q.12.04.654.24t.74.273q.207.073.634.194a5.807,5.807,0,0,0,.767.167,4.949,4.949,0,0,0,3.182-.634A3.574,3.574,0,0,0,18.38,16.69a5.254,5.254,0,0,0,.28-.914,4.386,4.386,0,0,0,.134-.94A.744.744,0,0,0,18.754,14.555Z" transform="translate(0)" fill="#fff"/>
  </g>
</svg>
