<svg xmlns="http://www.w3.org/2000/svg" width="10.431" height="8.693" viewBox="0 0 10.431 8.693">
  <g id="direct-download" transform="translate(0 -2)">
    <path id="Path_16" data-name="Path 16" d="M8.607,8.085a.325.325,0,0,1-.236-.1L6.09,5.594a.326.326,0,0,1,.236-.551h1.2v-2.5A.544.544,0,0,1,8.064,2H9.151a.544.544,0,0,1,.543.543v2.5h1.2a.326.326,0,0,1,.236.551L8.843,7.984A.325.325,0,0,1,8.607,8.085Z" transform="translate(-3.392)" fill="#20657d"/>
    <path id="Path_17" data-name="Path 17" d="M9.671,19.739H.761A.761.761,0,0,1,0,18.978v-.217A.761.761,0,0,1,.761,18h8.91a.761.761,0,0,1,.761.761v.217A.761.761,0,0,1,9.671,19.739Z" transform="translate(0 -9.046)" fill="#20657d"/>
  </g>
</svg>
