<svg xmlns="http://www.w3.org/2000/svg" width="19.5" height="13.711" viewBox="0 0 19.5 13.711">
  <g id="en" transform="translate(0 -76)">
    <g id="Group_113" data-name="Group 113" transform="translate(0 76)">
      <g id="Group_112" data-name="Group 112" transform="translate(0 0)">
        <path id="Path_68" data-name="Path 68" d="M222.09,182.764c-.3,0-.593.107-.593.358v2.586l-1.232-2.35c-.289-.555-.449-.593-.875-.593-.3,0-.593.114-.593.365v4.83c0,.243.3.365.593.365s.593-.122.593-.365v-2.586L221.429,188a.664.664,0,0,0,.662.319c.3,0,.593-.122.593-.365v-4.837C222.684,182.871,222.387,182.764,222.09,182.764Z" transform="translate(-210.464 -178.698)" fill="#fff"/>
        <path id="Path_69" data-name="Path 69" d="M114.383,183.8c.228,0,.358-.243.358-.525,0-.243-.107-.51-.358-.51h-2.708c-.259,0-.517.122-.517.365v4.83c0,.243.259.365.517.365h2.708c.251,0,.358-.266.358-.51,0-.281-.129-.525-.358-.525h-2.038V186h1.141c.251,0,.357-.243.357-.449,0-.243-.129-.464-.357-.464h-1.141V183.8Z" transform="translate(-106.924 -178.698)" fill="#fff"/>
        <path id="Path_70" data-name="Path 70" d="M16.687,82.856l2.739-5.767A.762.762,0,0,0,18.738,76H.762A.762.762,0,0,0,0,76.762V88.949a.762.762,0,0,0,.762.762H18.738a.762.762,0,0,0,.688-1.089ZM1.523,88.188V77.523h16.01l-2.377,5.005a.762.762,0,0,0,0,.654l2.377,5.005Z" transform="translate(0 -76)" fill="#fff"/>
      </g>
    </g>
  </g>
</svg>
