<svg xmlns="http://www.w3.org/2000/svg" width="16" height="16" viewBox="0 0 16 16">
  <g id="Group_22" data-name="Group 22" transform="translate(-183.333 -257.333)">
    <circle id="Ellipse_3" data-name="Ellipse 3" cx="8" cy="8" r="8" transform="translate(183.333 257.333)" fill="#20657d"/>
    <g id="view" transform="translate(187.379 263.319)">
      <g id="Group_2" data-name="Group 2" transform="translate(2.505 1.189)">
        <g id="Group_1" data-name="Group 1">
          <path id="Path_1" data-name="Path 1" d="M157.6,156.416a1.189,1.189,0,1,0,1.189,1.189A1.19,1.19,0,0,0,157.6,156.416Zm-.09.836a.273.273,0,0,0-.271.271h-.394a.672.672,0,0,1,.664-.664Z" transform="translate(-156.416 -156.416)" fill="#fff"/>
        </g>
      </g>
      <g id="Group_4" data-name="Group 4" transform="translate(0 0)">
        <g id="Group_3" data-name="Group 3" transform="translate(0)">
          <path id="Path_2" data-name="Path 2" d="M7.3,84.308c-.4-.5-1.837-2.132-3.608-2.132S.488,83.808.086,84.308a.394.394,0,0,0,0,.492c.4.5,1.837,2.132,3.608,2.132S6.9,85.3,7.3,84.8A.394.394,0,0,0,7.3,84.308ZM3.694,86.276a1.722,1.722,0,1,1,1.722-1.722A1.722,1.722,0,0,1,3.694,86.276Z" transform="translate(0 -82.176)" fill="#fff"/>
        </g>
      </g>
    </g>
  </g>
</svg>
