<svg xmlns="http://www.w3.org/2000/svg" width="19.5" height="19.534" viewBox="0 0 19.5 19.534">
  <g id="followers" transform="translate(-0.44)">
    <g id="Group_135" data-name="Group 135" transform="translate(0.44)">
      <g id="Group_134" data-name="Group 134">
        <path id="Path_87" data-name="Path 87" d="M9.353,17.974H2.727a.762.762,0,0,1-.725-1A5.876,5.876,0,0,1,7.585,13a5.7,5.7,0,0,1,3.275,1.027.762.762,0,1,0,.871-1.249,7.237,7.237,0,0,0-1.519-.811,3.877,3.877,0,0,0,1.261-2.558,5.734,5.734,0,0,1,7.269-.594.762.762,0,1,0,.871-1.249,7.237,7.237,0,0,0-1.519-.811,3.884,3.884,0,1,0-5.23-.009q-.159.061-.316.13a7.231,7.231,0,0,0-1.341.77,3.884,3.884,0,1,0-6.232,4.306A7.325,7.325,0,0,0,.552,16.513,2.285,2.285,0,0,0,2.727,19.5H9.353a.762.762,0,0,0,0-1.523ZM15.484,1.523a2.361,2.361,0,1,1-2.361,2.361A2.364,2.364,0,0,1,15.484,1.523ZM7.6,6.736A2.361,2.361,0,1,1,5.24,9.1,2.364,2.364,0,0,1,7.6,6.736Z" transform="translate(-0.44)" fill="#fff"/>
        <path id="Path_88" data-name="Path 88" d="M272.219,322.492a.762.762,0,0,0-1.063.176l-3.754,5.244a.435.435,0,0,1-.626.033l-2.43-2.334a.762.762,0,0,0-1.055,1.1l2.433,2.336a1.964,1.964,0,0,0,1.351.54q.064,0,.129,0a1.964,1.964,0,0,0,1.4-.727l.026-.034,3.769-5.265A.762.762,0,0,0,272.219,322.492Z" transform="translate(-253.038 -310.051)" fill="#fff"/>
      </g>
    </g>
  </g>
</svg>
