<svg id="google" xmlns="http://www.w3.org/2000/svg" width="15" height="15" viewBox="0 0 15 15">
  <path id="Path_18" data-name="Path 18" d="M3.324,143.282,2.8,145.231l-1.908.04a7.513,7.513,0,0,1-.055-7h0l1.7.311.744,1.689a4.476,4.476,0,0,0,.042,3.014Z" transform="translate(0 -134.217)" fill="#fbbb00"/>
  <path id="Path_19" data-name="Path 19" d="M268.832,208.176a7.5,7.5,0,0,1-2.674,7.25h0l-2.14-.109-.3-1.891a4.47,4.47,0,0,0,1.923-2.283h-4.01v-2.967h7.2Z" transform="translate(-253.963 -202.077)" fill="#518ef8"/>
  <path id="Path_20" data-name="Path 20" d="M41.81,313.693h0a7.5,7.5,0,0,1-11.3-2.294l2.431-1.99a4.46,4.46,0,0,0,6.428,2.284Z" transform="translate(-29.615 -300.344)" fill="#28b446"/>
  <path id="Path_21" data-name="Path 21" d="M40.073,1.727l-2.43,1.989a4.46,4.46,0,0,0-6.575,2.335l-2.443-2h0A7.5,7.5,0,0,1,40.073,1.727Z" transform="translate(-27.785)" fill="#f14336"/>
</svg>
