<svg xmlns="http://www.w3.org/2000/svg" width="16.537" height="15" viewBox="0 0 16.537 15">
  <path id="heart" d="M11.716,22.543a4.769,4.769,0,0,0-2.19.525A4.859,4.859,0,0,0,8.269,24a4.859,4.859,0,0,0-1.257-.927,4.769,4.769,0,0,0-2.19-.525A4.826,4.826,0,0,0,0,27.364c0,1.883.994,3.883,2.956,5.944a28.579,28.579,0,0,0,5.036,4.056l.278.179.278-.179a28.577,28.577,0,0,0,5.036-4.056c1.961-2.061,2.956-4.061,2.956-5.944A4.826,4.826,0,0,0,11.716,22.543Z" transform="translate(0 -22.543)" fill="#fff"/>
</svg>
