<svg id="home" xmlns="http://www.w3.org/2000/svg" width="18.784" height="14.949" viewBox="0 0 18.784 14.949">
  <g id="Group_9" data-name="Group 9" transform="translate(0 0)">
    <path id="Path_21" data-name="Path 21" d="M72.409,120.939l-6.7,5.523a.158.158,0,0,1-.006.035.159.159,0,0,0-.006.035v5.592a.757.757,0,0,0,.746.746h4.474V128.4H73.9v4.474h4.474a.757.757,0,0,0,.746-.746v-5.592a.164.164,0,0,0-.012-.07Z" transform="translate(-63.017 -117.921)" fill="#fff"/>
    <path id="Path_22" data-name="Path 22" d="M18.654,54.276,16.1,52.156V47.4a.359.359,0,0,0-.373-.373H13.493a.359.359,0,0,0-.373.373v2.272L10.277,47.3a1.445,1.445,0,0,0-1.771,0L.129,54.276a.338.338,0,0,0-.128.25.377.377,0,0,0,.081.274l.722.862a.4.4,0,0,0,.245.128.433.433,0,0,0,.28-.082l8.062-6.723,8.063,6.723a.359.359,0,0,0,.245.081h.035a.4.4,0,0,0,.245-.128L18.7,54.8a.377.377,0,0,0,.081-.274A.339.339,0,0,0,18.654,54.276Z" transform="translate(0.001 -46.994)" fill="#fff"/>
  </g>
</svg>
