<svg xmlns="http://www.w3.org/2000/svg" width="18.784" height="25.176" viewBox="0 0 18.784 25.176">
  <g id="journal" transform="translate(-65)">
    <g id="Group_78" data-name="Group 78" transform="translate(65)">
      <g id="Group_77" data-name="Group 77" transform="translate(0)">
        <path id="Path_30" data-name="Path 30" d="M83.41,20.653a.374.374,0,0,0-.374.374v1.205H70.106V10.259a.374.374,0,1,0-.748,0V20.821a2.549,2.549,0,0,0-3.61,0V2.553s0-.007,0-.011a1.8,1.8,0,0,1,3.61.011v6.46a.374.374,0,1,0,.748,0V2.926h12.93V19.781a.374.374,0,0,0,.748,0V2.552a.374.374,0,0,0-.374-.374H70.078A2.553,2.553,0,0,0,65,2.552s0,.008,0,.012V22.616s0,.005,0,.008a2.556,2.556,0,0,0,2.553,2.552H82.481a.374.374,0,0,0,0-.748H67.553a1.807,1.807,0,0,1-1.8-1.8v-.01a1.8,1.8,0,0,1,3.61.008.374.374,0,0,0,.488.356H83.41a.374.374,0,0,0,.374-.374V21.027A.374.374,0,0,0,83.41,20.653Z" transform="translate(-65)" fill="#fff"/>
      </g>
    </g>
    <g id="Group_80" data-name="Group 80" transform="translate(70.573 14.142)">
      <g id="Group_79" data-name="Group 79">
        <path id="Path_31" data-name="Path 31" d="M183.317,287.6H178.7a.374.374,0,1,0,0,.748h4.615a.374.374,0,1,0,0-.748Z" transform="translate(-178.328 -287.601)" fill="#fff"/>
      </g>
    </g>
    <g id="Group_82" data-name="Group 82" transform="translate(70.573 15.708)">
      <g id="Group_81" data-name="Group 81">
        <path id="Path_32" data-name="Path 32" d="M183.317,319.436H178.7a.374.374,0,1,0,0,.748h4.615a.374.374,0,1,0,0-.748Z" transform="translate(-178.328 -319.436)" fill="#fff"/>
      </g>
    </g>
    <g id="Group_84" data-name="Group 84" transform="translate(70.573 17.273)">
      <g id="Group_83" data-name="Group 83">
        <path id="Path_33" data-name="Path 33" d="M183.317,351.272H178.7a.374.374,0,1,0,0,.748h4.615a.374.374,0,1,0,0-.748Z" transform="translate(-178.328 -351.272)" fill="#fff"/>
      </g>
    </g>
    <g id="Group_86" data-name="Group 86" transform="translate(70.573 18.838)">
      <g id="Group_85" data-name="Group 85">
        <path id="Path_34" data-name="Path 34" d="M183.317,383.107H178.7a.374.374,0,1,0,0,.748h4.615a.374.374,0,1,0,0-.748Z" transform="translate(-178.328 -383.107)" fill="#fff"/>
      </g>
    </g>
    <g id="Group_88" data-name="Group 88" transform="translate(70.573 20.404)">
      <g id="Group_87" data-name="Group 87">
        <path id="Path_35" data-name="Path 35" d="M183.317,414.942H178.7a.374.374,0,1,0,0,.748h4.615a.374.374,0,1,0,0-.748Z" transform="translate(-178.328 -414.942)" fill="#fff"/>
      </g>
    </g>
    <g id="Group_90" data-name="Group 90" transform="translate(76.748 4.75)">
      <g id="Group_89" data-name="Group 89" transform="translate(0)">
        <path id="Path_36" data-name="Path 36" d="M308.91,96.59h-4.615a.374.374,0,0,0,0,.748h4.615a.374.374,0,0,0,0-.748Z" transform="translate(-303.921 -96.59)" fill="#fff"/>
      </g>
    </g>
    <g id="Group_92" data-name="Group 92" transform="translate(76.748 6.315)">
      <g id="Group_91" data-name="Group 91" transform="translate(0)">
        <path id="Path_37" data-name="Path 37" d="M308.91,128.425h-4.615a.374.374,0,0,0,0,.748h4.615a.374.374,0,0,0,0-.748Z" transform="translate(-303.921 -128.425)" fill="#fff"/>
      </g>
    </g>
    <g id="Group_94" data-name="Group 94" transform="translate(76.748 7.88)">
      <g id="Group_93" data-name="Group 93" transform="translate(0)">
        <path id="Path_38" data-name="Path 38" d="M308.91,160.26h-4.615a.374.374,0,0,0,0,.748h4.615a.374.374,0,0,0,0-.748Z" transform="translate(-303.921 -160.26)" fill="#fff"/>
      </g>
    </g>
    <g id="Group_96" data-name="Group 96" transform="translate(76.748 18.838)">
      <g id="Group_95" data-name="Group 95" transform="translate(0)">
        <path id="Path_39" data-name="Path 39" d="M308.911,383.107H304.3a.374.374,0,0,0,0,.748h4.615a.374.374,0,0,0,0-.748Z" transform="translate(-303.922 -383.107)" fill="#fff"/>
      </g>
    </g>
    <g id="Group_98" data-name="Group 98" transform="translate(76.748 20.404)">
      <g id="Group_97" data-name="Group 97" transform="translate(0)">
        <path id="Path_40" data-name="Path 40" d="M308.911,414.942H304.3a.374.374,0,0,0,0,.748h4.615a.374.374,0,0,0,0-.748Z" transform="translate(-303.922 -414.942)" fill="#fff"/>
      </g>
    </g>
    <g id="Group_100" data-name="Group 100" transform="translate(73.913 23.323)">
      <g id="Group_99" data-name="Group 99">
        <path id="Path_41" data-name="Path 41" d="M255.074,474.3H246.63a.374.374,0,1,0,0,.748h8.444a.374.374,0,0,0,0-.748Z" transform="translate(-246.256 -474.304)" fill="#fff"/>
      </g>
    </g>
    <g id="Group_102" data-name="Group 102" transform="translate(66.106 21.177)">
      <g id="Group_101" data-name="Group 101">
        <path id="Path_42" data-name="Path 42" d="M94.426,432.815H88.939a.7.7,0,1,1,.7-.7.374.374,0,0,0,.748,0,1.447,1.447,0,1,0-1.447,1.447h5.488a.374.374,0,0,0,0-.748Z" transform="translate(-87.492 -430.669)" fill="#fff"/>
      </g>
    </g>
    <g id="Group_104" data-name="Group 104" transform="translate(70.573 4.75)">
      <g id="Group_103" data-name="Group 103">
        <path id="Path_43" data-name="Path 43" d="M183.317,96.59H178.7a.374.374,0,0,0-.374.374v7.827a.374.374,0,0,0,.374.374h4.615a.374.374,0,0,0,.374-.374V96.964A.374.374,0,0,0,183.317,96.59Zm-4.241.748h1.877a2.161,2.161,0,0,1,.431,1.551c-.046.162-.418.4-1.312.547a9.461,9.461,0,0,1-1,.1Zm1.064,5.3-.1,1.782h-.964v-4.132a10.272,10.272,0,0,0,1.106-.11,5.588,5.588,0,0,0,.807-.184l.126,2.291h-.6A.374.374,0,0,0,180.14,102.635Zm2.8,1.782h-2.154l.078-1.387h.644a.374.374,0,0,0,.373-.395l-.166-3a1.041,1.041,0,0,0,.385-.54,2.315,2.315,0,0,0-.22-1.624c-.021-.046-.043-.09-.065-.132h1.126v7.079Z" transform="translate(-178.328 -96.59)" fill="#fff"/>
      </g>
    </g>
    <g id="Group_106" data-name="Group 106" transform="translate(76.748 9.3)">
      <g id="Group_105" data-name="Group 105" transform="translate(0)">
        <path id="Path_44" data-name="Path 44" d="M308.911,189.136H304.3a.374.374,0,0,0-.374.374v7.827a.374.374,0,0,0,.374.374h4.615a.374.374,0,0,0,.374-.374V189.51A.374.374,0,0,0,308.911,189.136Zm-.374,7.827H304.67v-.985l1.312-1.5,1.622,1.436a.374.374,0,0,0,.5-.56l-.458-.405.9-.9v2.914Zm0-3.972-1.456,1.456-.885-.784a.374.374,0,0,0-.53.034l-1,1.142v-4.956h3.867v3.107Z" transform="translate(-303.922 -189.136)" fill="#fff"/>
      </g>
    </g>
    <g id="Group_108" data-name="Group 108" transform="translate(77.652 10.533)">
      <g id="Group_107" data-name="Group 107" transform="translate(0)">
        <path id="Path_45" data-name="Path 45" d="M323.715,214.2a1.421,1.421,0,1,0,1.421,1.421A1.422,1.422,0,0,0,323.715,214.2Zm0,2.094a.673.673,0,1,1,.673-.673A.674.674,0,0,1,323.715,216.292Z" transform="translate(-322.294 -214.198)" fill="#fff"/>
      </g>
    </g>
    <g id="Group_110" data-name="Group 110" transform="translate(71.769 8.497)">
      <g id="Group_109" data-name="Group 109" transform="translate(0)">
        <path id="Path_46" data-name="Path 46" d="M203.912,173.039a.374.374,0,0,0-.481-.219l-.532.2a.374.374,0,1,0,.263.7l.532-.2A.374.374,0,0,0,203.912,173.039Z" transform="translate(-202.656 -172.796)" fill="#fff"/>
      </g>
    </g>
  </g>
</svg>
