<svg xmlns="http://www.w3.org/2000/svg" width="18.784" height="19.663" viewBox="0 0 18.784 19.663">
  <g id="private" transform="translate(-11.448 0)">
    <g id="Group_111" data-name="Group 111" transform="translate(11.448 0)">
      <path id="Path_62" data-name="Path 62" d="M140.83,222.3h1.65a.288.288,0,1,0,0-.576h-1.65a.288.288,0,0,0,0,.576Z" transform="translate(-135.584 -213.207)" fill="#fff"/>
      <path id="Path_63" data-name="Path 63" d="M140.83,258.646h6.7a.288.288,0,1,0,0-.576h-6.7a.288.288,0,1,0,0,.576Z" transform="translate(-135.584 -248.159)" fill="#fff"/>
      <path id="Path_64" data-name="Path 64" d="M270.574,294.417h-1.786a.288.288,0,0,0,0,.576h1.786a.288.288,0,0,0,0-.576Z" transform="translate(-258.628 -283.11)" fill="#fff"/>
      <path id="Path_65" data-name="Path 65" d="M29.86,1.934,26.132.071a.675.675,0,0,0-.6,0L21.8,1.934h0a.668.668,0,0,0-.372.6v.536H17.383a.288.288,0,1,0,0,.576h4.048v.876a7.338,7.338,0,0,0,.095,1.2H16.694a.288.288,0,1,0,0,.576h4.955a5.635,5.635,0,0,0,.286.82H16.694a.288.288,0,1,0,0,.576H22.23a5.666,5.666,0,0,0,.333.5q.119.161.252.318H19.5a.288.288,0,1,0,0,.576h3.869a12.848,12.848,0,0,0,2.116,1.557.671.671,0,0,0,.7,0l.087-.054v6.995H18.734v-.537a.288.288,0,1,0-.576,0v1.939a.1.1,0,0,1-.1.1H12.12a.1.1,0,0,1-.1-.1V14.843a.1.1,0,0,1,.1-.1h5.942a.1.1,0,0,1,.1.1v.865a.288.288,0,1,0,.576,0v-.865a.669.669,0,0,0-.022-.167h4.682a.288.288,0,1,0,0-.576H17.808v-.82h5.586a.288.288,0,0,0,0-.576H17.8a2.7,2.7,0,0,0-.208-.82h2.983a.288.288,0,1,0,0-.576H17.25a2.712,2.712,0,0,0-3.433-.753V3.647h2.222a.288.288,0,1,0,0-.576H13.722a.481.481,0,0,0-.48.48v7.415a2.71,2.71,0,0,0-.868,1.989v1.216H12.12a.673.673,0,0,0-.672.672v4.149a.673.673,0,0,0,.672.672h5.942a.673.673,0,0,0,.672-.672v-.826h7.632a.481.481,0,0,0,.48-.48V10.224A8.775,8.775,0,0,0,29.1,8.2a5.943,5.943,0,0,0,1.131-3.674V2.535a.668.668,0,0,0-.372-.6ZM16.08,14.171H14.1V12.955a.989.989,0,1,1,1.979,0v1.216ZM12.95,12.955a2.141,2.141,0,1,1,4.283,0v1.216h-.576V12.955a1.565,1.565,0,0,0-3.131,0v1.216H12.95ZM29.656,4.523c0,2.768-1.444,4.208-3.774,5.633a.1.1,0,0,1-.1,0c-2.33-1.426-3.774-2.865-3.774-5.633V2.535a.1.1,0,0,1,.053-.086L25.789.586a.1.1,0,0,1,.086,0L29.6,2.449a.1.1,0,0,1,.053.086V4.523Z" transform="translate(-11.448 0)" fill="#fff"/>
      <path id="Path_66" data-name="Path 66" d="M312.541,52.13a2.915,2.915,0,1,0,2.746,3.893.288.288,0,0,0-.543-.193,2.34,2.34,0,1,1,.1-1.2.288.288,0,1,0,.567-.1A2.909,2.909,0,0,0,312.541,52.13Z" transform="translate(-298.175 -50.128)" fill="#fff"/>
      <path id="Path_67" data-name="Path 67" d="M354.286,105.39l-1.135,1.135-.66-.66a.288.288,0,0,0-.407.407l.864.864a.288.288,0,0,0,.407,0l1.339-1.339a.288.288,0,0,0-.407-.407Z" transform="translate(-338.92 -101.262)" fill="#fff"/>
    </g>
  </g>
</svg>
