<svg xmlns="http://www.w3.org/2000/svg" width="19.5" height="16.249" viewBox="0 0 19.5 16.249">
  <g id="sign-in_2_" data-name="sign-in (2)" transform="translate(0 -36.551)">
    <g id="Group_133" data-name="Group 133" transform="translate(0 36.551)">
      <path id="Path_85" data-name="Path 85" d="M262.415,37.624a3.521,3.521,0,0,0-2.584-1.073H255.77a.383.383,0,0,0-.26.082.418.418,0,0,0-.127.248,2.1,2.1,0,0,0-.038.3,3.107,3.107,0,0,0,.006.336q.012.2.012.254a.329.329,0,0,1,.025.171c-.008.046.021.085.089.114s.1.053.1.07.049.029.146.038l.146.013h3.961a2.038,2.038,0,0,1,2.031,2.031v8.937a2.038,2.038,0,0,1-2.031,2.031H255.77a.383.383,0,0,0-.26.082.42.42,0,0,0-.127.247,2.113,2.113,0,0,0-.038.3,3.146,3.146,0,0,0,.006.336q.013.2.013.254a.411.411,0,0,0,.406.406h4.062a3.663,3.663,0,0,0,3.656-3.656V40.207A3.523,3.523,0,0,0,262.415,37.624Z" transform="translate(-243.988 -36.551)" fill="#fff"/>
      <path id="Path_86" data-name="Path 86" d="M15.031,53.4a.782.782,0,0,0-.241-.571L7.884,45.918A.813.813,0,0,0,6.5,46.49v3.656H.813a.782.782,0,0,0-.571.241A.781.781,0,0,0,0,50.958v4.875a.781.781,0,0,0,.241.571.783.783,0,0,0,.571.241H6.5V60.3a.808.808,0,0,0,1.384.571l6.906-6.906A.782.782,0,0,0,15.031,53.4Z" transform="translate(0 -45.271)" fill="#fff"/>
    </g>
  </g>
</svg>
