<svg xmlns="http://www.w3.org/2000/svg" width="19.5" height="20.431" viewBox="0 0 19.5 20.431">
  <g id="subscription" transform="translate(-11.667)">
    <path id="Path_77" data-name="Path 77" d="M30.868.994H26.8V.3a.3.3,0,0,0-.3-.3h-10.3a.3.3,0,0,0-.3.3v.7H11.966a.3.3,0,0,0-.3.3V9.147a.3.3,0,0,0,.3.3h3.928v2.185a.3.3,0,0,0,.3.3h.913a1.071,1.071,0,0,0-.113.371L16.6,15.709a2.38,2.38,0,0,0-.016.288,2.481,2.481,0,0,0,.956,1.887l1,.858v1.389a.3.3,0,0,0,.3.3h.921a.3.3,0,1,0,0-.6h-.622V18.605a.3.3,0,0,0-.1-.227l-.983-.846a2.042,2.042,0,0,1-.865-1.54,1.776,1.776,0,0,1,.012-.215l.393-3.407a.475.475,0,0,1,.473-.421.5.5,0,0,1,.357.162.484.484,0,0,1,.119.314v2.523a.3.3,0,1,0,.6,0V6.839a.476.476,0,0,1,.951,0v0s0,0,0,0v3.784a.3.3,0,1,0,.6,0c0-.065,0-.256,0-.306.053-.609,1.074-.594,1.074.031v.453a.3.3,0,0,0,.6,0,.477.477,0,0,1,.476-.476c.3,0,.6.129.6.476V11.1a.3.3,0,0,0,.6.005.429.429,0,0,1,.015-.122.487.487,0,0,1,.935,0l.369,1.422a6.023,6.023,0,0,1-.031,3.137l-.837,2.98a.3.3,0,0,0-.011.081v1.227H21.19a.3.3,0,1,0,0,.6h3.586a.3.3,0,0,0,.3-.3V18.647l.826-2.94a6.622,6.622,0,0,0,.034-3.45l-.085-.326H26.5a.3.3,0,0,0,.3-.3V2.807h3.771V8.848H27.9a.3.3,0,1,0,0,.6h2.963a.3.3,0,0,0,.3-.3V1.294h0a.3.3,0,0,0-.3-.3Zm-18.6.6h3.629v.615H12.266ZM16.493.6H26.2v1.61H16.493ZM12.266,8.848V2.807h3.629V8.848Zm13.429,2.484-.129-.5a1.094,1.094,0,0,0-1.693-.594A1.2,1.2,0,0,0,22.262,9.9a1.184,1.184,0,0,0-1.576-.508V7.138h2.723a.29.29,0,0,1,.29.29V8a.29.29,0,0,1-.29.29H21.77a.3.3,0,1,0,0,.6h1.638A.889.889,0,0,0,24.3,8V7.428a.89.89,0,0,0-.888-.889H20.643a1.074,1.074,0,0,0-2.106.3v4.493H16.493V2.807H26.2v8.525Zm1.1-9.124V1.593h3.771v.615Z" transform="translate(0)" fill="#fff"/>
    <path id="Path_78" data-name="Path 78" d="M207,28.036h-3.47a.3.3,0,0,0,0,.6H207a.3.3,0,0,0,0-.6Z" transform="translate(-183.921 -26.917)" fill="#fff"/>
    <path id="Path_79" data-name="Path 79" d="M159.265,84.734H156.9a.3.3,0,0,0-.3.3V86.4a.3.3,0,0,0,.3.3h2.363a.3.3,0,0,0,.3-.3V85.033A.3.3,0,0,0,159.265,84.734Zm-.3,1.367H157.2v-.768h1.765Z" transform="translate(-139.152 -81.353)" fill="#fff"/>
    <path id="Path_80" data-name="Path 80" d="M406.156,110.326h1.778a.3.3,0,0,0,0-.6h-1.778a.3.3,0,0,0,0,.6Z" transform="translate(-378.46 -105.348)" fill="#fff"/>
    <path id="Path_81" data-name="Path 81" d="M407.934,142.59a.3.3,0,0,0,0-.6h-1.778a.3.3,0,0,0,0,.6Z" transform="translate(-378.46 -136.325)" fill="#fff"/>
    <path id="Path_82" data-name="Path 82" d="M42.238,110.326h1.778a.3.3,0,0,0,0-.6H42.238a.3.3,0,1,0,0,.6Z" transform="translate(-29.064 -105.348)" fill="#fff"/>
    <path id="Path_83" data-name="Path 83" d="M44.016,141.991H42.238a.3.3,0,0,0,0,.6h1.778a.3.3,0,0,0,0-.6Z" transform="translate(-29.064 -136.325)" fill="#fff"/>
    <path id="Path_84" data-name="Path 84" d="M256.569,101.861h-3.175a.3.3,0,1,0,0,.6h3.175a.3.3,0,0,0,0-.6Z" transform="translate(-231.794 -97.796)" fill="#fff"/>
  </g>
</svg>
