<svg xmlns="http://www.w3.org/2000/svg" width="16" height="16" viewBox="0 0 16 16">
  <g id="Group_138" data-name="Group 138" transform="translate(-39 -254)">
    <circle id="Ellipse_5" data-name="Ellipse 5" cx="8" cy="8" r="8" transform="translate(39 254)" fill="#20657d"/>
    <g id="trash" transform="translate(-4.143 258.132)">
      <path id="Path_24" data-name="Path 24" d="M53.681.967h-1.33V.725A.725.725,0,0,0,51.626,0h-.967a.725.725,0,0,0-.725.725V.967H48.6a.6.6,0,0,0-.6.6v.483a.242.242,0,0,0,.242.242h5.8a.242.242,0,0,0,.242-.242V1.571A.6.6,0,0,0,53.681.967ZM50.417.725a.242.242,0,0,1,.242-.242h.967a.242.242,0,0,1,.242.242V.967h-1.45Z" fill="#fff"/>
      <path id="Path_25" data-name="Path 25" d="M73.44,184a.076.076,0,0,0-.075.079l.2,4.186a.724.724,0,0,0,.724.691h3.671a.724.724,0,0,0,.724-.691l.2-4.186a.076.076,0,0,0-.075-.079Zm3.651.6a.242.242,0,0,1,.483,0v3.143a.242.242,0,0,1-.483,0Zm-1.209,0a.242.242,0,0,1,.483,0v3.143a.242.242,0,0,1-.483,0Zm-1.209,0a.242.242,0,0,1,.483,0v3.143a.242.242,0,0,1-.483,0Z" transform="translate(-24.981 -181.22)" fill="#fff"/>
    </g>
  </g>
</svg>
